<?xml version="1.0" encoding="UTF-8" standalone="no"?>
<svg
   xmlns:dc="http://purl.org/dc/elements/1.1/"
   xmlns:cc="http://creativecommons.org/ns#"
   xmlns:rdf="http://www.w3.org/1999/02/22-rdf-syntax-ns#"
   xmlns:svg="http://www.w3.org/2000/svg"
   xmlns="http://www.w3.org/2000/svg"
   xmlns:xlink="http://www.w3.org/1999/xlink"
   xmlns:sodipodi="http://sodipodi.sourceforge.net/DTD/sodipodi-0.dtd"
   xmlns:inkscape="http://www.inkscape.org/namespaces/inkscape"
   style="height: 512px; width: 512px;"
   viewBox="0 0 512 512"
   version="1.1"
   id="svg910"
   sodipodi:docname="icon.svg"
   inkscape:version="1.0.2 (e86c870879, 2021-01-15, custom)">
  <metadata
     id="metadata914">
    <rdf:RDF>
      <cc:Work
         rdf:about="">
        <dc:format>image/svg+xml</dc:format>
        <dc:type
           rdf:resource="http://purl.org/dc/dcmitype/StillImage" />
      </cc:Work>
    </rdf:RDF>
  </metadata>
  <sodipodi:namedview
     pagecolor="#ffffff"
     bordercolor="#666666"
     borderopacity="1"
     objecttolerance="10"
     gridtolerance="10"
     guidetolerance="10"
     inkscape:pageopacity="0"
     inkscape:pageshadow="2"
     inkscape:window-width="1920"
     inkscape:window-height="1027"
     id="namedview912"
     showgrid="false"
     inkscape:zoom="0.64"
     inkscape:cx="235.0895"
     inkscape:cy="357.14746"
     inkscape:window-x="1912"
     inkscape:window-y="-8"
     inkscape:window-maximized="1"
     inkscape:current-layer="svg910" />
  <defs
     id="defs902">
    <linearGradient
       x1="18.371807"
       x2="490.05359"
       y1="21.960241"
       y2="493.64203"
       id="linearGradient1534"
       gradientTransform="matrix(0.80562616,0,0,0.7944131,51.2,51.2)"
       gradientUnits="userSpaceOnUse"
       spreadMethod="pad">
      <stop
         offset="0%"
         stop-color="#444444"
         stop-opacity="1"
         id="stop1530" />
      <stop
         offset="100%"
         stop-color="#000000"
         stop-opacity="1"
         id="stop1532"
         style="stop-opacity:0" />
    </linearGradient>
    <linearGradient
       x1="18.371807"
       x2="490.05359"
       y1="21.960241"
       y2="493.64203"
       id="linearGradient1528"
       gradientTransform="matrix(0.80562616,0,0,0.7944131,51.2,51.2)"
       gradientUnits="userSpaceOnUse"
       spreadMethod="pad">
      <stop
         offset="0%"
         stop-color="#444444"
         stop-opacity="1"
         id="stop1524" />
      <stop
         offset="100%"
         stop-color="#000000"
         stop-opacity="1"
         id="stop1526"
         style="stop-opacity:0" />
    </linearGradient>
    <linearGradient
       x1="18.371807"
       x2="490.05359"
       y1="21.960241"
       y2="493.64203"
       id="linearGradient1522"
       gradientTransform="matrix(0.80562616,0,0,0.7944131,51.2,51.2)"
       gradientUnits="userSpaceOnUse"
       spreadMethod="pad">
      <stop
         offset="0%"
         stop-color="#444444"
         stop-opacity="1"
         id="stop1518" />
      <stop
         offset="100%"
         stop-color="#000000"
         stop-opacity="1"
         id="stop1520" />
    </linearGradient>
    <linearGradient
       x1="18.371808"
       x2="490.05358"
       y1="21.960241"
       y2="493.64202"
       id="linearGradient1516"
       gradientTransform="matrix(0.80562616,0,0,0.7944131,51.2,51.2)"
       gradientUnits="userSpaceOnUse">
      <stop
         offset="0%"
         stop-color="#444444"
         stop-opacity="1"
         id="stop1512" />
      <stop
         offset="100%"
         stop-color="#000000"
         stop-opacity="1"
         id="stop1514" />
    </linearGradient>
    <linearGradient
       x1="18.371808"
       x2="490.05358"
       y1="21.960241"
       y2="493.64202"
       id="linearGradient1510"
       gradientTransform="matrix(0.80562616,0,0,0.7944131,51.2,51.2)"
       gradientUnits="userSpaceOnUse">
      <stop
         offset="0%"
         stop-color="#444444"
         stop-opacity="1"
         id="stop1506" />
      <stop
         offset="100%"
         stop-color="#000000"
         stop-opacity="1"
         id="stop1508" />
    </linearGradient>
    <linearGradient
       x1="0"
       x2="1"
       y1="0"
       y2="1"
       id="faithtoken-card-pick-gradient-0">
      <stop
         offset="0%"
         stop-color="#ffffff"
         stop-opacity="1"
         id="stop892" />
      <stop
         offset="100%"
         stop-color="#dddddd"
         stop-opacity="1"
         id="stop894" />
    </linearGradient>
    <linearGradient
       x1="18.371808"
       x2="490.05358"
       y1="21.960241"
       y2="493.64202"
       id="faithtoken-card-pick-gradient-1"
       gradientTransform="matrix(0.80562616,0,0,0.7944131,51.2,51.2)"
       gradientUnits="userSpaceOnUse"
       xlink:href="#linearGradient1534">
      <stop
         offset="0%"
         stop-color="#444444"
         stop-opacity="1"
         id="stop897" />
      <stop
         offset="100%"
         stop-color="#000000"
         stop-opacity="1"
         id="stop899" />
    </linearGradient>
  </defs>
  <path
     id="circle904"
     style="fill:#fdfdfd;fill-opacity:1;stroke-width:1;stroke-miterlimit:4;stroke-dasharray:none"
     d="M 400.53516 467.29492 L 459.85352 274.58984 C 460.27976 273.1998 460.5555 271.79791 460.68945 270.4043 C 460.82341 269.01068 460.81549 267.62545 460.67578 266.26367 C 460.53607 264.90189 460.26583 263.56407 459.87109 262.26953 C 459.47636 260.975 458.9573 259.72313 458.32617 258.53125 C 457.69505 257.33937 456.95045 256.20812 456.10156 255.1543 C 455.25268 254.10048 454.29997 253.12449 453.25195 252.24414 C 452.20394 251.36379 451.06054 250.57773 449.83203 249.90625 C 448.60352 249.23477 447.29076 248.67719 445.90039 248.25 L 278.07812 196.58008 C 276.6889 196.15253 275.28988 195.87691 273.89648 195.74219 C 272.50309 195.60747 271.11594 195.61258 269.75391 195.75195 C 268.39187 195.89132 267.0549 196.16387 265.75977 196.55859 C 264.46463 196.95331 263.21027 197.47023 262.01758 198.10156 C 260.82488 198.7329 259.69339 199.47891 258.63867 200.32812 C 257.58395 201.17734 256.60582 202.13133 255.72461 203.17969 C 254.8434 204.22804 254.05888 205.37085 253.38672 206.59961 C 252.71455 207.82837 252.1561 209.14278 251.72852 210.5332 L 173.10156 466.01562 C 172.67428 467.40819 172.39795 468.80962 172.26367 470.20508 C 172.1294 471.60054 172.13749 472.98845 172.27734 474.35156 C 172.4172 475.71467 172.68888 477.05409 173.08398 478.34961 C 173.47909 479.64513 173.99742 480.89717 174.62891 482.08984 C 175.26039 483.28252 176.00453 484.41611 176.85352 485.4707 C 177.7025 486.5253 178.65552 487.50155 179.70312 488.38281 C 180.75073 489.26408 181.89374 490.04996 183.12109 490.72266 C 184.34844 491.39535 185.66061 491.95394 187.04883 492.38281 L 250.60156 511.94336 A 256 256 0 0 0 256 512 A 256 256 0 0 0 400.53516 467.29492 z " />
  <path
     id="path1602"
     style="fill:#040404;fill-opacity:1;stroke-width:1;stroke-miterlimit:4;stroke-dasharray:none"
     d="M 104.10938 49.929688 A 256 256 0 0 0 0 256 A 256 256 0 0 0 250.60156 511.94336 L 187.04883 492.38281 C 185.66061 491.95394 184.34844 491.39535 183.12109 490.72266 C 181.89374 490.04996 180.75074 489.26408 179.70312 488.38281 C 178.65552 487.50155 177.7025 486.5253 176.85352 485.4707 C 176.00453 484.41611 175.26039 483.28252 174.62891 482.08984 C 173.99742 480.89717 173.47909 479.64513 173.08398 478.34961 C 172.68888 477.05409 172.4172 475.71467 172.27734 474.35156 C 172.13749 472.98845 172.1294 471.60054 172.26367 470.20508 C 172.39795 468.80962 172.67428 467.4082 173.10156 466.01562 L 251.72852 210.5332 C 252.1561 209.14278 252.71455 207.82837 253.38672 206.59961 C 254.05888 205.37085 254.8434 204.22804 255.72461 203.17969 C 256.60582 202.13133 257.58395 201.17735 258.63867 200.32812 C 259.69339 199.47892 260.82488 198.7329 262.01758 198.10156 C 263.21027 197.47023 264.46463 196.95331 265.75977 196.55859 C 267.0549 196.16387 268.39187 195.89132 269.75391 195.75195 C 271.11594 195.61258 272.50309 195.60747 273.89648 195.74219 C 275.28988 195.87691 276.6889 196.15253 278.07812 196.58008 L 445.90039 248.25 C 447.29076 248.67719 448.60352 249.23477 449.83203 249.90625 C 451.06054 250.57773 452.20394 251.36379 453.25195 252.24414 C 454.29997 253.12449 455.25268 254.10048 456.10156 255.1543 C 456.95045 256.20812 457.69505 257.33937 458.32617 258.53125 C 458.9573 259.72313 459.47636 260.975 459.87109 262.26953 C 460.26583 263.56407 460.53607 264.90189 460.67578 266.26367 C 460.81549 267.62545 460.82341 269.01068 460.68945 270.4043 C 460.5555 271.79791 460.27976 273.1998 459.85352 274.58984 L 400.53516 467.29492 A 256 256 0 0 0 512 256 A 256 256 0 0 0 327.93945 10.316406 C 328.11197 11.184518 328.32176 12.042449 328.38281 12.939453 C 328.47782 14.335359 328.43332 15.761556 328.23828 17.201172 L 306.28125 180.18945 L 285.80078 174.10938 C 282.88537 173.2427 279.95103 172.69304 277.03516 172.43945 C 274.11928 172.18587 271.22186 172.22757 268.37891 172.54688 C 265.53595 172.86618 262.74743 173.46247 260.05078 174.31445 C 257.35413 175.16644 254.75039 176.27469 252.27344 177.61914 C 249.79648 178.96359 247.44755 180.54313 245.26367 182.33984 C 243.07979 184.13656 241.0596 186.1506 239.24219 188.35938 C 237.42478 190.56815 235.8092 192.97211 234.43164 195.55273 C 233.05408 198.13336 231.9151 200.89047 231.05078 203.80273 L 204.97852 291.61523 L 204.97461 291.61523 L 94.818359 276.76758 C 93.377564 276.57254 91.991587 276.23566 90.669922 275.77344 C 89.348257 275.31122 88.092254 274.72299 86.914062 274.02539 C 85.735871 273.32779 84.635374 272.52033 83.625 271.61914 C 82.614626 270.71795 81.693214 269.72337 80.875 268.65039 C 80.056786 267.57741 79.339991 266.42586 78.738281 265.21289 C 78.136572 263.99992 77.649924 262.72546 77.289062 261.4043 C 76.928201 260.08313 76.693327 258.71593 76.597656 257.31836 C 76.501985 255.92079 76.546371 254.49295 76.740234 253.05078 L 104.10938 49.929688 z " />
  <path
     id="path1605"
     style="fill:#fdfdfd;fill-opacity:1;stroke-width:1;stroke-miterlimit:4;stroke-dasharray:none"
     d="M 104.10938 49.929688 L 76.740234 253.05078 C 76.546371 254.49295 76.501985 255.92079 76.597656 257.31836 C 76.693327 258.71593 76.928201 260.08313 77.289062 261.4043 C 77.649924 262.72546 78.136572 263.99992 78.738281 265.21289 C 79.339991 266.42586 80.056786 267.57741 80.875 268.65039 C 81.693214 269.72337 82.614626 270.71795 83.625 271.61914 C 84.635374 272.52033 85.735871 273.32779 86.914062 274.02539 C 88.092254 274.72299 89.348257 275.31122 90.669922 275.77344 C 91.991587 276.23566 93.377564 276.57254 94.818359 276.76758 L 204.97461 291.61523 L 204.97852 291.61523 L 231.05078 203.80273 C 231.9151 200.89047 233.05408 198.13336 234.43164 195.55273 C 235.8092 192.97211 237.42478 190.56815 239.24219 188.35938 C 241.0596 186.1506 243.07979 184.13656 245.26367 182.33984 C 247.44755 180.54313 249.79648 178.96359 252.27344 177.61914 C 254.75039 176.27469 257.35413 175.16644 260.05078 174.31445 C 262.74743 173.46247 265.53595 172.86618 268.37891 172.54688 C 271.22186 172.22757 274.11928 172.18587 277.03516 172.43945 C 279.95103 172.69304 282.88537 173.2427 285.80078 174.10938 L 306.28125 180.18945 L 328.23828 17.201172 C 328.43332 15.761556 328.47782 14.335359 328.38281 12.939453 C 328.32176 12.042449 328.11197 11.184518 327.93945 10.316406 A 256 256 0 0 0 256 0 A 256 256 0 0 0 104.10938 49.929688 z " />
</svg>
